HIERARCHY
ROOT Hip
{
    OFFSET 0.0 0.0 0.0
    CHANNELS 6 Xposition Yposition Zposition Zrotation Xrotation Yrotation
    JOINT RightHip
    {
        OFFSET -12.327881545957279 0.0 0.0
        CHANNELS 3 Zrotation Xrotation Yrotation
        JOINT RightKnee
        {
            OFFSET 0.0 0.0 -41.46891246093216
            CHANNELS 3 Zrotation Xrotation Yrotation
            JOINT RightAnkle
            {
                OFFSET 0.0 0.0 -41.11373258541475
                CHANNELS 3 Zrotation Xrotation Yrotation
                End Site
                {
                    OFFSET 0.0 -16.4454930341659 0.0
                }
            }
        }
    }
    JOINT LeftHip
    {
        OFFSET 12.327881545957279 0.0 0.0
        CHANNELS 3 Zrotation Xrotation Yrotation
        JOINT LeftKnee
        {
            OFFSET 0.0 0.0 -41.46891246093216
            CHANNELS 3 Zrotation Xrotation Yrotation
            JOINT LeftAnkle
            {
                OFFSET 0.0 0.0 -41.11373258541475
                CHANNELS 3 Zrotation Xrotation Yrotation
                End Site
                {
                    OFFSET 0.0 -16.4454930341659 0.0
                }
            }
        }
    }
    JOINT Spine
    {
        OFFSET 0.0 0.0 22.066107301952314
        CHANNELS 3 Zrotation Xrotation Yrotation
        JOINT Thorax
        {
            OFFSET 0.0 0.0 22.42237947416305
            CHANNELS 3 Zrotation Xrotation Yrotation
            JOINT Neck
            {
                OFFSET 0.0 0.0 2.514714617371696
                CHANNELS 3 Zrotation Xrotation Yrotation
                JOINT Head
                {
                    OFFSET 0.0 0.0 20.88413233412423
                    CHANNELS 3 Zrotation Xrotation Yrotation
                    End Site
                    {
                        OFFSET -8.353652933649693 0.0 0.0
                    }
                }
            }
            JOINT LeftShoulder
            {
                OFFSET 18.255728316152222 0.0 0.0
                CHANNELS 3 Zrotation Xrotation Yrotation
                JOINT LeftElbow
                {
                    OFFSET 30.24937572927054 0.0 0.0
                    CHANNELS 3 Zrotation Xrotation Yrotation
                    JOINT LeftWrist
                    {
                        OFFSET 26.04312528554653 0.0 0.0
                        CHANNELS 3 Zrotation Xrotation Yrotation
                        End Site
                        {
                            OFFSET 10.417250114218614 0.0 0.0
                        }
                    }
                }
            }
            JOINT RightShoulder
            {
                OFFSET -18.255728316152222 0.0 0.0
                CHANNELS 3 Zrotation Xrotation Yrotation
                JOINT RightElbow
                {
                    OFFSET -30.24937572927054 0.0 0.0
                    CHANNELS 3 Zrotation Xrotation Yrotation
                    JOINT RightWrist
                    {
                        OFFSET -26.04312528554653 0.0 0.0
                        CHANNELS 3 Zrotation Xrotation Yrotation
                        End Site
                        {
                            OFFSET -10.417250114218614 0.0 0.0
                        }
                    }
                }
            }
            JOINT Nose
            {
                OFFSET 0.0 0.0 20.308533650732112
                CHANNELS 3 Zrotation Xrotation Yrotation
                End Site
                {
                    OFFSET -8.123413460292845 0.0 0.0
                }
            }
        }
    }
}
MOTION
Frames: 11
Frame Time: 0.03333333333333333
25.61091863519507 63.96595563296474 16.887875508651064 -20.007171985676223 -6.485273096748353 -14.667135670787001 -10.68564459988541 3.9459043050305844 1.77781656590134 4.53475215591318 10.043210049717302 0.9979328969303726 0.0 0.0 9.93923337957349e-16 3.7491683986150317 10.566634403605685 -1.639162125791868 -3.592267203607517 6.608317307658917 0.049836687111447446 0.0 0.0 -1.987846675914698e-16 3.0592060112175052e-15 12.856370022111328 1.2556698852780803e-15 -4.194648799567171 -0.08409530463328492 11.420032294585955 -178.23704815902397 5.937331762190552 -27.416351338641995 3.1805546814635168e-15 7.951386703658792e-16 -2.2069531490250793e-32 -74.98430029669068 24.667106170749307 -14.25046607360679 -2.5596037746544525e-14 -1.542133908950452e-15 -113.61455405035029 -1.5902773407317584e-15 0.0 0.0 76.9411490698676 26.37771597903801 7.951533084180484 6.035268946665292e-15 3.762335597779002e-15 117.00823107541711 3.1805546814635168e-15 -6.3611093629270335e-15 1.7655625192200634e-31 0.0 0.0 1.987846675914698e-16
25.602080098096565 63.94388045948281 16.893083779161337 -19.61050254190354 -6.496505309589727 -14.286757075941424 -11.664400204966178 3.9778041360037086 1.5830859635055907 5.342409947073264 9.315883911782919 0.9733852751824651 0.0 0.0 -1.5902773407317584e-15 3.603331974669431 10.831983421815783 -1.3780472373117767 -3.892524572631175 5.860621321288613 0.07520116103929388 3.1805546814635168e-15 1.2138242319637935e-31 4.373262687012335e-15 3.606496661455787e-15 13.44284104006316 -3.427438636695895e-15 -4.476250542644263 -0.09313391209083864 10.55500960244336 -178.59049751093087 1.493800949963218 -36.19229067136903 0.0 0.0 0.0 -74.20312029121436 26.82937286741741 -15.356269479771978 -2.9089585503953507e-14 3.694577399302271e-15 -113.2738203103306 6.3611093629270335e-15 -6.3611093629270335e-15 3.531125038440127e-31 76.4236522284906 27.63448128987281 8.843849548546478 -8.709655226820833e-15 -9.575331048292031e-15 116.6604317225167 0.0 0.0 0.0 0.0 0.0 0.0
25.462561495959115 63.5954181164713 16.97529768096985 -19.5716746999756 -6.236274057740845 -14.360049341785759 -11.962538948021322 3.4811122517728186 1.170571380488638 5.827546519940575 8.743279903394688 0.8918999557544721 -3.1805546814635164e-15 2.758691436281349e-32 -9.939233379573488e-16 3.5834311353872477 11.105969422929558 -1.0749264834220211 -3.7922932946019507 4.69876869299768 0.048510137935142625 0.0 0.0 -1.1927080055488186e-15 5.529353905526833e-16 14.088121213862204 -4.4748460897465765e-15 -4.140152701219455 -0.0180656454231444 10.708092193969108 -179.30810415449272 -0.9455311305413507 -42.66683324275253 0.0 1.5902773407317584e-15 0.0 -74.34886705245802 27.318696832414183 -16.436831813098674 -5.3486504322111935e-15 -3.4432035782284197e-15 -114.45703207780709 0.0 0.0 0.0 74.97780701582707 28.566660385855783 9.619414812492776 -1.2831002855781913e-15 -6.671399817899396e-15 117.11455667776546 3.1805546814635168e-15 -8.827812596100317e-32 -3.1805546814635168e-15 1.1034765745125397e-32 -1.5902773407317584e-15 7.951386703658792e-16
25.464537398106753 63.60035313933834 16.974133344296032 -19.16410133695842 -5.852631110080332 -14.285603467731484 -12.600830191982993 2.0407790281553577 0.751619294764314 6.7109301226088505 9.411361463030588 0.9250286843216287 0.0 0.0 9.93923337957349e-17 3.2954045600526456 11.251544608544023 -0.8889285089189972 -3.7253033995724376 3.0322403937095532 0.04111269143290368 0.0 0.0 -9.939233379573488e-16 -3.648144123662628e-15 14.513587723637535 3.4703890498827695e-15 -4.497678918323872 -0.05533897057128436 10.322738813302243 -179.49228050336984 -4.933996871837721 -63.06361038834987 -1.5902773407317584e-15 0.0 0.0 -73.95586876199941 28.252697552409057 -16.914117921914972 -5.997913199248425e-15 3.8216066860914656e-15 -118.13709481315037 2.3854160110976376e-15 0.0 0.0 74.0752181942685 29.79819861133414 10.797713085251834 1.3670910548780972e-15 -8.124309620621093e-16 118.55590420750077 -3.1805546814635168e-15 0.0 0.0 0.0 0.0 0.0
25.459546784358178 63.58788855803342 16.977074155215885 -19.05981448236418 -5.30262843744149 -14.373085093473128 -12.899982686633281 -0.596703766406255 0.010058190805026535 7.223105023277662 11.659706719900436 1.0942415516374289 0.0 0.0 7.951386703658792e-16 3.220106961049927 10.54234908906018 -0.6762887515192584 -3.480260688959931 2.8214854471100033 0.03017311721242371 0.0 0.0 3.975693351829396e-16 -2.906540221687812e-15 15.675595088463849 -2.2084696294297453e-15 -5.789165101752146 -0.2674228376503807 9.688276298819968 -179.21091228662425 -9.670078262828541 -107.49903447253187 1.5902773407317584e-15 0.0 0.0 -71.62989318126245 30.01690731245979 -18.101577682901244 1.1921709302073737e-14 -7.758312248964873e-15 -119.2399891986035 -1.5902773407317584e-15 0.0 0.0 74.05412074079375 31.431131994873684 12.526198724948857 1.6903477173040785e-15 -8.281694673928311e-15 120.70012665701447 0.0 0.0 0.0 0.0 0.0 -7.951386703658792e-16
25.47807438379508 63.634163180995884 16.966156426558083 -18.74873182519399 -4.854373689523302 -12.953027040234014 -12.990911160422481 -2.9246798903100606 -0.7226217147014785 7.173291983735909 14.277756615762517 1.3450940748584774 -1.3793457181406746e-33 -3.975693351829396e-16 -3.975693351829396e-16 3.322810731678266 9.763133602355474 -0.43816467962058014 -3.2961368730211165 2.299632634738976 0.01458331019661785 0.0 0.0 -9.93923337957349e-17 3.3200727296873845e-15 17.000004302827726 -6.971807181095472e-16 -5.414359056853772 -0.17915091763709112 8.588033796618593 179.53881462618057 -11.416217449398145 -124.99174116988272 -7.951386703658792e-16 0.0 0.0 -71.09865863648585 31.09468556142437 -20.12216127822202 1.1016093219751403e-14 6.364003416263938e-15 -119.96989777419374 1.5902773407317584e-15 0.0 0.0 72.73310479191808 31.531224761711158 14.220114037642578 5.613142239525761e-15 1.1444637565796254e-14 120.59508184520662 0.0 0.0 0.0 0.0 0.0 -7.951386703658792e-16
25.284306122145335 63.15020662307954 17.080337937788993 -19.65309590558125 -3.1749704256351428 -9.439651238071459 -11.808318130255973 -7.750304907423548 -2.146384803357153 7.417769653885246 18.798957193845983 1.2777514371592371 0.0 0.0 7.951386703658794e-16 5.682051306757417 6.004014690024491 -0.00908985607737038 -3.664786956054303 3.228357133474613 -0.10135094199157862 0.0 0.0 2.981770013872047e-16 6.6314528012419964e-15 17.755270059330147 -1.2370008908039767e-15 -3.3324517854315814 -0.10986589256856438 6.464844204130953 179.0570109130408 -16.111359537925015 -156.03564131423514 0.0 0.0 -3.1805546814635168e-15 -70.06722389519012 32.79364785157944 -21.202565787563657 2.180770750826458e-14 1.960300436630155e-14 -121.15270680369038 -3.975693351829396e-16 0.0 0.0 71.78881646148405 30.909519542853516 15.53551907262827 -5.820223455434862e-15 -4.087130942079461e-15 123.28540561287076 -3.1805546814635176e-15 -6.361109362927035e-15 3.1805546814635176e-15 0.0 0.0 0.0
25.409179675177597 63.46209141982462 17.006753900462126 -19.550901315348202 -0.3326255140644712 -7.117752777537728 -11.846566686162808 -17.74437435605848 -4.443768765424972 6.7357382056288495 27.28990500292534 1.9107523112608862 0.0 0.0 1.987846675914698e-16 6.95749953673983 -0.9959655813273504 0.9787587057681184 -4.505761196241821 6.635545230819423 -0.2677840900559871 0.0 0.0 1.987846675914698e-16 2.6131155213659467e-15 17.00964044848247 4.0311308316414566e-15 -3.3788773029005634 -0.16665116958154114 4.679981270846428 -179.79340249312494 -17.986031111370394 -162.05260952535633 7.951386703658792e-16 0.0 0.0 -67.77998344933707 34.2981462482643 -22.32258679071068 2.5997520448469867e-15 8.612125983724913e-15 -123.59509675617768 1.5902773407317584e-15 8.827812596100317e-32 6.3611093629270335e-15 70.98941727593228 31.313429121245647 17.555977250680428 -1.7293052479915375e-14 -1.971886014677061e-14 125.57223644947356 0.0 0.0 0.0 0.0 0.0 0.0
25.05341990021731 62.57354406604752 17.21639188964717 -19.34612531998656 3.2140706409595503 -6.167227255417035 -13.12545931030115 -26.48269003516247 -6.983059460027323 7.447217514134105 32.10918981650544 1.945495440856889 -1.034509288605506e-33 -1.987846675914698e-16 -5.963540027744094e-16 8.094211006011513 -8.507033023892024 2.391931506828856 -4.753906630797735 8.391704532101388 -0.43591998207986127 0.0 0.0 -1.4908850069360235e-16 -3.980098021892141e-16 16.362542499429317 2.7684065789693364e-15 -3.4383668857381124 -0.16901751466968087 3.9657462856583177 -179.8282398571929 -15.057071403315371 -165.7695759103596 -2.3854160110976376e-15 -3.975693351829396e-15 -8.276074308844047e-32 -66.20198099712401 34.81024365856029 -24.83905003088502 -2.8353222592096127e-15 -1.4411369706623962e-15 -126.11337998638591 -6.957463365701443e-16 6.3611093629270335e-15 3.862168010793889e-32 69.58867515674258 31.520859126629865 20.294989782118847 1.444741111159875e-15 -6.646090145110905e-16 130.59329979517278 3.1805546814635168e-15 0.0 0.0 0.0 0.0 3.975693351829396e-16
25.105544328723063 62.70373029359699 17.185676611674594 -18.65386892375963 7.548330898208017 -4.340973094267904 -16.50902949631191 -43.43055498209585 -12.999372173382694 4.310007405815611 52.03034397811168 5.127246127625654 -3.1805546814635168e-15 -1.9878466759146985e-16 1.987846675914698e-15 10.190031521679204 -27.344444320399464 6.459475708818291 -6.320176620651875 27.083674595401504 -0.9490980752053138 3.1805546814635168e-15 2.2069531490250793e-32 7.951386703658792e-16 6.521473673991297e-15 14.66184203877164 -8.38997515596059e-16 -3.6188243510186 -0.09560256271736609 2.135754924815261 179.7943938731918 -11.123206900681813 -174.17356621926868 0.0 0.0 0.0 -63.87873070029354 35.437829445253385 -28.053364467003025 -1.4223763190475084e-14 -5.587787465397225e-17 -126.41972846442921 -2.95070990956088e-15 0.0 0.0 66.22226207532587 33.35438777489785 24.14560759875302 1.593948606598541e-14 -7.206913932196405e-15 131.34053553368548 3.1805546814635168e-15 0.0 0.0 0.0 0.0 7.951386703658792e-16
25.10056237171994 62.69128733342183 17.188612321448016 -18.926370329114746 9.921568919774426 -4.0397706358598615 -18.498308967245357 -51.40479472071497 -16.10386110936358 2.3610103060605776 60.461545492879054 6.637942096382803 3.1805546814635168e-15 1.987846675914698e-16 3.975693351829396e-16 12.253319652716582 -35.96411902482417 9.069241201420871 -6.855129928524104 36.57286461323456 -1.2239267296720024 -3.4483642953516864e-34 9.939233379573489e-17 3.9756933518293955e-16 -1.4981085427572672e-16 14.000573744397617 1.2200609946038778e-15 -3.3035860739475997 -0.08892381979340358 1.985489275024394 179.15922779507582 -8.583628534107852 175.00155335479562 4.373262687012336e-15 0.0 0.0 -61.5547462620222 36.19297823744803 -31.061917980918622 -5.956900075106657e-15 -1.697719176165888e-14 -128.66956109432672 -2.1866313435061676e-15 0.0 0.0 64.51841386080844 33.20136005923401 26.984402951609223 -1.2746112821472925e-14 -1.3857991453310422e-15 132.92026172281973 0.0 0.0 3.1805546814635164e-15 0.0 0.0 0.0
